<!-- Generated by IcoMoon.io -->
<svg version="1.1" xmlns="http://www.w3.org/2000/svg" width="32" height="32" viewBox="0 0 32 32">
<title>deygonnasee</title>
<path d="M18.444 0.39c-0.522 0.533-1.092 1.033-1.642 1.536-3.772 3.449-6.965 7.659-9.324 12.608-1.105-2.411-1.873-5.164-2.437-8.317-0.080-0.448-0.268-0.966-0.212-1.271 0.085-0.462 1.423-1.435 1.854-1.748 2.9-2.11 6.85-3.474 11.76-2.808z"></path>
<path d="M19.98 0.708c5.262 1.537 8.818 4.779 10.701 9.695-4.823-1.848-10.867-2.995-17.694-2.49-0.171-0.075 0.103-0.334 0.212-0.477 1.858-2.439 4.337-4.834 6.781-6.728z"></path>
<path d="M10.444 22.587c-3.644-0.417-6.738-1.385-9.695-2.49-0.739-2.736-0.655-5.505-0.053-7.946 0.628-2.545 1.723-4.55 3.073-6.145 0.045-0.010 0.050 0.021 0.053 0.053 1.048 6.183 3.287 11.268 6.145 15.681 0.171 0.265 0.426 0.521 0.477 0.848z"></path>
<path d="M15.159 9.025c2.512-0.268 4.456 0.642 5.774 1.96 1.194 1.195 2.215 3.043 2.013 5.668-0.265 3.445-3.35 6.292-6.94 6.304-2.897 0.009-5.311-1.77-6.357-3.92-0.513-1.054-0.743-2.479-0.636-3.655 0.129-1.417 0.61-2.581 1.060-3.285 0.952-1.491 2.777-2.826 5.086-3.073zM16.802 13.687c0.533 1.619 3.468 1.51 3.443-0.636-0.012-1.082-1.041-1.885-2.172-1.642-1.077 0.231-1.607 1.26-1.271 2.278zM15.954 16.706c1.025-0.028 0.981-1.807-0.212-1.536-0.976 0.222-0.616 1.559 0.212 1.536z"></path>
<path d="M21.411 9.343c-0.010-0.045 0.021-0.050 0.053-0.053 3.652 0.445 6.823 1.37 9.748 2.543 1.247 4.248 0.095 9.193-1.695 12.184-0.321 0.536-0.668 0.992-1.059 1.484-0.090 0.113-0.147 0.419-0.371 0.371-1.079-6.656-3.528-11.941-6.675-16.529z"></path>
<path d="M24.43 17.342c1.004 2.054 1.995 5.437 2.49 8.37 0.080 0.472 0.257 1.049 0.212 1.272-0.056 0.277-0.799 0.867-1.165 1.166-2.877 2.343-7.286 4.14-12.555 3.337 0.485-0.557 1.103-0.997 1.642-1.483 3.813-3.435 6.949-7.744 9.377-12.661z"></path>
<path d="M1.227 21.58c-0.010-0.045 0.021-0.050 0.053-0.053 4.845 1.762 10.921 3.011 17.588 2.437 0.178 0.084-0.109 0.399-0.212 0.53-1.914 2.422-4.316 4.811-6.834 6.675-5.164-1.564-8.62-4.836-10.595-9.589z"></path>
</svg>
